<svg xmlns:mydata="http://www.w3.org/2000/svg" mydata:contrastcolor="e6eff3" mydata:template="Contrast" mydata:presentation="2.5" mydata:layouttype="undefined" mydata:specialfontid="undefined" mydata:id1="518" mydata:id2="143" mydata:companyname="WR10" mydata:companytagline="estações inteligentes para agricultura" version="1.1" xmlns="http://www.w3.org/2000/svg" xmlns:xlink="http://www.w3.org/1999/xlink" viewBox="101.48704659154981 167.0789087724258 347.0259068169003 135.84218245514847" class="watermark-logo" style="opacity: 1.924;">
  <g fill="none" fill-rule="nonzero" stroke="none" stroke-width="1" stroke-linecap="butt" stroke-linejoin="miter" stroke-miterlimit="10" stroke-dasharray="" stroke-dashoffset="0" font-family="none" font-weight="none" font-size="none" text-anchor="none" style="mix-blend-mode: normal">
    <g data-paper-data="{&quot;isGlobalGroup&quot;:true,&quot;bounds&quot;:{&quot;x&quot;:101.48704659154981,&quot;y&quot;:167.0789087724258,&quot;width&quot;:347.0259068169003,&quot;height&quot;:135.84218245514847}}">
      <g data-paper-data="{&quot;isSecondaryText&quot;:true}" fill="#005f83">
        <path d="M128.29213,295.99114l0.2501,-1.37557h3.10545c0.08337,0 0.12505,-0.03126 0.15631,-0.10421l0.55231,-1.21925c0.04168,-0.09379 0,-0.15631 -0.10421,-0.15631h-5.02291c-0.08337,0 -0.13547,0.04168 -0.14589,0.12505l-1.25052,7.11753c-0.01042,0.09379 0.03126,0.14589 0.12505,0.14589h4.97081c0.08337,0 0.13547,-0.04168 0.14589,-0.12505l0.20842,-1.19841c0.01042,-0.09379 -0.03126,-0.14589 -0.12505,-0.14589h-3.40766l0.29179,-1.59441h2.56356c0.08337,0 0.13547,-0.04168 0.14589,-0.12505l0.21884,-1.19841c0.01042,-0.09379 -0.03126,-0.14589 -0.12505,-0.14589z" data-paper-data="{&quot;glyphName&quot;:&quot;E&quot;,&quot;glyphIndex&quot;:0,&quot;firstGlyphOfWord&quot;:true,&quot;word&quot;:1}" style="fill: rgb(255, 255, 255);"/>
        <path d="M137.59111,297.61681c0.56273,0.21884 0.76073,0.45852 0.76073,0.76073c0,0.58357 -0.58357,0.76073 -1.26094,0.76073c-0.51063,0 -0.96915,-0.08337 -1.50062,-0.26052l-0.61484,-0.20842c-0.07295,-0.03126 -0.13547,0 -0.17716,0.07295l-0.57315,1.10462c-0.04168,0.08337 -0.01042,0.15631 0.07295,0.18758l0.66694,0.21884c0.76073,0.26052 1.38599,0.38558 1.97999,0.38558c2.44893,0 3.10545,-1.35473 3.10545,-2.55314c0,-0.88578 -0.54189,-1.35473 -1.69862,-1.81325l-0.82326,-0.32305c-0.53147,-0.20842 -0.72947,-0.38558 -0.72947,-0.63568c0,-0.50021 0.4481,-0.78157 1.20883,-0.78157c0.38558,0 0.75031,0.06253 1.15673,0.198l0.58357,0.198c0.07295,0.03126 0.13547,0 0.17716,-0.07295l0.594,-1.11504c0.0521,-0.07295 0.02084,-0.14589 -0.06253,-0.17716l-0.6461,-0.21884c-0.61484,-0.21884 -1.13589,-0.32305 -1.67778,-0.32305c-2.30304,0 -3.0325,1.34431 -3.0325,2.52188c0,0.86494 0.47937,1.27136 1.60483,1.71946z" data-paper-data="{&quot;glyphName&quot;:&quot;S&quot;,&quot;glyphIndex&quot;:1,&quot;word&quot;:1}" style="fill: rgb(255, 255, 255);"/>
        <path d="M149.78713,293.28169c0.01042,-0.09379 -0.03126,-0.14589 -0.12505,-0.14589h-5.80449c-0.08337,0 -0.13547,0.04168 -0.14589,0.12505l-0.21884,1.20883c-0.01042,0.09379 0.03126,0.14589 0.12505,0.14589h2.06335l-1.02126,5.7628c-0.01042,0.09379 0.03126,0.14589 0.12505,0.14589h1.41725c0.08337,0 0.13547,-0.04168 0.14589,-0.12505l1.02126,-5.78364h2.05293c0.08337,0 0.13547,-0.04168 0.14589,-0.12505z" data-paper-data="{&quot;glyphName&quot;:&quot;T&quot;,&quot;glyphIndex&quot;:2,&quot;word&quot;:1}" style="fill: rgb(255, 255, 255);"/>
        <path d="M155.61593,299.54469l0.16674,0.85452c0.01042,0.08337 0.06253,0.12505 0.14589,0.12505h1.40683c0.09379,0 0.13547,-0.0521 0.11463,-0.14589l-0.76073,-3.99123c-0.198,-1.06294 -0.36473,-2.07377 -0.43768,-3.11587c-0.01042,-0.09379 -0.0521,-0.13547 -0.14589,-0.13547h-1.9383c-0.08337,0 -0.12505,0.03126 -0.15631,0.10421c-0.45852,1.05252 -0.97957,2.07377 -1.56315,3.14714l-2.15714,3.98081c-0.04168,0.09379 -0.01042,0.15631 0.10421,0.15631h1.53188c0.07295,0 0.12505,-0.03126 0.15631,-0.09379l0.46894,-0.88578zM155.34499,298.07534h-2.00083l0.21884,-0.41684c0.4481,-0.83368 0.93789,-1.80283 1.19841,-2.48019c0.0521,-0.12505 0.18758,-0.12505 0.198,0c0,0.67736 0.16674,1.65694 0.30221,2.48019z" data-paper-data="{&quot;glyphName&quot;:&quot;A&quot;,&quot;glyphIndex&quot;:3,&quot;word&quot;:1}" style="fill: rgb(255, 255, 255);"/>
        <path d="M166.01955,294.81357c0.07295,0.03126 0.13547,0 0.16674,-0.07295l0.57315,-1.11504c0.04168,-0.08337 0.01042,-0.15631 -0.07295,-0.18758l-0.41684,-0.13547c-0.53147,-0.17716 -1.00041,-0.28137 -1.5423,-0.28137c-2.9804,0 -4.06418,2.75114 -4.06418,4.6686c0,1.57357 0.78157,2.62609 2.14672,2.88661l-0.33347,0.63568c-0.03126,0.06253 -0.03126,0.10421 -0.02084,0.14589c0.04168,0.06253 0.08337,0.09379 0.16674,0.09379h0.36473c0.13547,0 0.198,0.08337 0.198,0.17716c0,0.12505 -0.0521,0.22926 -0.22926,0.22926c-0.11463,0 -0.198,-0.01042 -0.28137,-0.04168l-0.12505,-0.0521c-0.08337,-0.03126 -0.14589,0 -0.18758,0.07295l-0.38558,0.76073c-0.04168,0.07295 -0.01042,0.14589 0.07295,0.17716l0.15631,0.0521c0.15631,0.0521 0.32305,0.09379 0.55231,0.09379c1.02126,0 1.39641,-0.76073 1.39641,-1.34431c0,-0.45852 -0.2501,-0.72947 -0.58357,-0.72947h-0.07295l0.12505,-0.20842c0.54189,-0.01042 0.98999,-0.07295 1.42767,-0.198l0.56273,-0.16674c0.08337,-0.02084 0.11463,-0.07295 0.10421,-0.15631l-0.22926,-1.21925c-0.02084,-0.08337 -0.08337,-0.12505 -0.16674,-0.09379l-0.51063,0.14589c-0.4481,0.12505 -0.80242,0.18758 -1.14631,0.18758c-0.85452,0 -1.30262,-0.48979 -1.30262,-1.5423c0,-1.14631 0.62526,-3.06377 2.25093,-3.06377c0.41684,0 0.67736,0.03126 0.93789,0.12505z" data-paper-data="{&quot;glyphName&quot;:&quot;Ç&quot;,&quot;glyphIndex&quot;:4,&quot;word&quot;:1}" style="fill: rgb(255, 255, 255);"/>
        <path d="M171.51487,292.10411c-0.06253,0.09379 -0.02084,0.16674 0.08337,0.16674h0.8441c0.07295,0 0.12505,-0.03126 0.16674,-0.08337l0.06253,-0.10421c0.09379,-0.12505 0.17716,-0.14589 0.23968,-0.14589c0.0521,0 0.14589,0.03126 0.21884,0.06253l0.29179,0.13547c0.17716,0.08337 0.40642,0.16674 0.63568,0.16674c0.48979,0 0.88578,-0.17716 1.18799,-0.60442l0.37516,-0.56273c0.06253,-0.09379 0.03126,-0.16674 -0.08337,-0.16674h-0.8441c-0.07295,0 -0.12505,0.02084 -0.16674,0.08337l-0.07295,0.10421c-0.08337,0.13547 -0.17716,0.15631 -0.2501,0.15631c-0.04168,0 -0.12505,-0.02084 -0.21884,-0.06253l-0.2501,-0.12505c-0.16674,-0.08337 -0.42726,-0.18758 -0.66694,-0.18758c-0.48979,0 -0.88578,0.18758 -1.17757,0.63568zM173.21349,293.02116c-2.91787,0 -3.97039,2.80324 -3.97039,4.68944c0,1.81325 1.03168,2.9283 2.83451,2.9283c2.89703,0 3.95997,-2.82409 3.95997,-4.69986c0,-1.81325 -1.03168,-2.91787 -2.82409,-2.91787zM173.15097,294.5322c0.76073,0 1.18799,0.51063 1.18799,1.45894c0,1.15673 -0.61484,3.14714 -2.19883,3.14714c-0.77115,0 -1.19841,-0.55231 -1.19841,-1.4902c0,-1.16715 0.594,-3.11587 2.20925,-3.11587z" data-paper-data="{&quot;glyphName&quot;:&quot;Õ&quot;,&quot;glyphIndex&quot;:5,&quot;word&quot;:1}" style="fill: rgb(255, 255, 255);"/>
        <path d="M181.12649,295.99114l0.2501,-1.37557h3.10545c0.08337,0 0.12505,-0.03126 0.15631,-0.10421l0.55231,-1.21925c0.04168,-0.09379 0,-0.15631 -0.10421,-0.15631h-5.02291c-0.08337,0 -0.13547,0.04168 -0.14589,0.12505l-1.25052,7.11753c-0.01042,0.09379 0.03126,0.14589 0.12505,0.14589h4.97081c0.08337,0 0.13547,-0.04168 0.14589,-0.12505l0.20842,-1.19841c0.01042,-0.09379 -0.03126,-0.14589 -0.12505,-0.14589h-3.40766l0.29179,-1.59441h2.56356c0.08337,0 0.13547,-0.04168 0.14589,-0.12505l0.21884,-1.19841c0.01042,-0.09379 -0.03126,-0.14589 -0.12505,-0.14589z" data-paper-data="{&quot;glyphName&quot;:&quot;E&quot;,&quot;glyphIndex&quot;:6,&quot;word&quot;:1}" style="fill: rgb(255, 255, 255);"/>
        <path d="M190.42548,297.61681c0.56273,0.21884 0.76073,0.45852 0.76073,0.76073c0,0.58357 -0.58357,0.76073 -1.26094,0.76073c-0.51063,0 -0.96915,-0.08337 -1.50062,-0.26052l-0.61484,-0.20842c-0.07295,-0.03126 -0.13547,0 -0.17716,0.07295l-0.57315,1.10462c-0.04168,0.08337 -0.01042,0.15631 0.07295,0.18758l0.66694,0.21884c0.76073,0.26052 1.38599,0.38558 1.97999,0.38558c2.44893,0 3.10545,-1.35473 3.10545,-2.55314c0,-0.88578 -0.54189,-1.35473 -1.69862,-1.81325l-0.82326,-0.32305c-0.53147,-0.20842 -0.72947,-0.38558 -0.72947,-0.63568c0,-0.50021 0.4481,-0.78157 1.20883,-0.78157c0.38558,0 0.75031,0.06253 1.15673,0.198l0.58357,0.198c0.07295,0.03126 0.13547,0 0.17716,-0.07295l0.594,-1.11504c0.0521,-0.07295 0.02084,-0.14589 -0.06253,-0.17716l-0.6461,-0.21884c-0.61484,-0.21884 -1.13589,-0.32305 -1.67778,-0.32305c-2.30304,0 -3.0325,1.34431 -3.0325,2.52188c0,0.86494 0.47937,1.27136 1.60483,1.71946z" data-paper-data="{&quot;glyphName&quot;:&quot;S&quot;,&quot;glyphIndex&quot;:7,&quot;lastGlyphOfWord&quot;:true,&quot;word&quot;:1}" style="fill: rgb(255, 255, 255);"/>
        <path d="M203.00013,293.28169c0.01042,-0.09379 -0.03126,-0.14589 -0.12505,-0.14589h-1.41725c-0.08337,0 -0.13547,0.04168 -0.14589,0.12505l-1.25052,7.11753c-0.01042,0.09379 0.03126,0.14589 0.12505,0.14589h1.41725c0.08337,0 0.13547,-0.04168 0.14589,-0.12505z" data-paper-data="{&quot;glyphName&quot;:&quot;I&quot;,&quot;glyphIndex&quot;:8,&quot;firstGlyphOfWord&quot;:true,&quot;word&quot;:2}" style="fill: rgb(255, 255, 255);"/>
        <path d="M212.80974,293.28169c0.01042,-0.09379 -0.03126,-0.14589 -0.12505,-0.14589h-1.41725c-0.08337,0 -0.13547,0.04168 -0.14589,0.12505l-0.53147,2.94914c-0.13547,0.75031 -0.198,1.22968 -0.20842,1.87578c0,0.14589 -0.12505,0.20842 -0.17716,0.04168c-0.09379,-0.30221 -0.198,-0.61484 -0.30221,-0.92747l-0.96915,-2.85535c-0.13547,-0.42726 -0.2501,-0.78157 -0.33347,-1.0942c-0.02084,-0.07295 -0.07295,-0.11463 -0.14589,-0.11463h-1.77157c-0.08337,0 -0.13547,0.04168 -0.14589,0.12505l-1.25052,7.11753c-0.01042,0.09379 0.03126,0.14589 0.12505,0.14589h1.41725c0.08337,0 0.13547,-0.04168 0.14589,-0.12505l0.51063,-2.9283c0.13547,-0.75031 0.18758,-1.2401 0.20842,-1.89662c0.01042,-0.13547 0.14589,-0.198 0.198,-0.04168l0.28137,0.85452l0.97957,2.9283c0.12505,0.37516 0.22926,0.71905 0.33347,1.0942c0.02084,0.07295 0.07295,0.11463 0.14589,0.11463h1.77157c0.08337,0 0.13547,-0.04168 0.14589,-0.12505z" data-paper-data="{&quot;glyphName&quot;:&quot;N&quot;,&quot;glyphIndex&quot;:9,&quot;word&quot;:2}" style="fill: rgb(255, 255, 255);"/>
        <path d="M222.09831,293.28169c0.01042,-0.09379 -0.03126,-0.14589 -0.12505,-0.14589h-5.80449c-0.08337,0 -0.13547,0.04168 -0.14589,0.12505l-0.21884,1.20883c-0.01042,0.09379 0.03126,0.14589 0.12505,0.14589h2.06335l-1.02126,5.7628c-0.01042,0.09379 0.03126,0.14589 0.12505,0.14589h1.41725c0.08337,0 0.13547,-0.04168 0.14589,-0.12505l1.02126,-5.78364h2.05293c0.08337,0 0.13547,-0.04168 0.14589,-0.12505z" data-paper-data="{&quot;glyphName&quot;:&quot;T&quot;,&quot;glyphIndex&quot;:10,&quot;word&quot;:2}" style="fill: rgb(255, 255, 255);"/>
        <path d="M226.52028,295.99114l0.2501,-1.37557h3.10545c0.08337,0 0.12505,-0.03126 0.15631,-0.10421l0.55231,-1.21925c0.04168,-0.09379 0,-0.15631 -0.10421,-0.15631h-5.02291c-0.08337,0 -0.13547,0.04168 -0.14589,0.12505l-1.25052,7.11753c-0.01042,0.09379 0.03126,0.14589 0.12505,0.14589h4.97081c0.08337,0 0.13547,-0.04168 0.14589,-0.12505l0.20842,-1.19841c0.01042,-0.09379 -0.03126,-0.14589 -0.12505,-0.14589h-3.40766l0.29179,-1.59441h2.56356c0.08337,0 0.13547,-0.04168 0.14589,-0.12505l0.21884,-1.19841c0.01042,-0.09379 -0.03126,-0.14589 -0.12505,-0.14589z" data-paper-data="{&quot;glyphName&quot;:&quot;E&quot;,&quot;glyphIndex&quot;:11,&quot;word&quot;:2}" style="fill: rgb(255, 255, 255);"/>
        <path d="M234.56875,299.02365l1.01083,-5.74196c0.01042,-0.09379 -0.03126,-0.14589 -0.12505,-0.14589h-1.41725c-0.08337,0 -0.13547,0.04168 -0.14589,0.12505l-1.25052,7.11753c-0.01042,0.09379 0.03126,0.14589 0.12505,0.14589h4.58523c0.08337,0 0.13547,-0.04168 0.14589,-0.12505l0.20842,-1.22968c0.01042,-0.09379 -0.03126,-0.14589 -0.12505,-0.14589z" data-paper-data="{&quot;glyphName&quot;:&quot;L&quot;,&quot;glyphIndex&quot;:12,&quot;word&quot;:2}" style="fill: rgb(255, 255, 255);"/>
        <path d="M243.7531,293.28169c0.01042,-0.09379 -0.03126,-0.14589 -0.12505,-0.14589h-1.41725c-0.08337,0 -0.13547,0.04168 -0.14589,0.12505l-1.25052,7.11753c-0.01042,0.09379 0.03126,0.14589 0.12505,0.14589h1.41725c0.08337,0 0.13547,-0.04168 0.14589,-0.12505z" data-paper-data="{&quot;glyphName&quot;:&quot;I&quot;,&quot;glyphIndex&quot;:13,&quot;word&quot;:2}" style="fill: rgb(255, 255, 255);"/>
        <path d="M252.64567,296.49135c0.01042,-0.09379 -0.03126,-0.14589 -0.12505,-0.14589h-2.21967c-0.08337,0 -0.12505,0.03126 -0.15631,0.10421l-0.56273,1.21925c-0.04168,0.09379 0,0.15631 0.10421,0.15631h1.11504l-0.198,1.10462l-0.16674,0.0521c-0.32305,0.10421 -0.68778,0.15631 -1.12547,0.15631c-0.79199,0 -1.22968,-0.54189 -1.22968,-1.50062c0,-1.16715 0.60442,-3.10545 2.25093,-3.10545c0.36473,0 0.66694,0.02084 0.98999,0.13547l0.40642,0.14589c0.08337,0.03126 0.14589,0 0.17716,-0.07295l0.57315,-1.12547c0.04168,-0.07295 0.01042,-0.14589 -0.07295,-0.17716l-0.46894,-0.15631c-0.52105,-0.17716 -0.92747,-0.26052 -1.5423,-0.26052c-2.94914,0 -4.01208,2.80324 -4.01208,4.68944c0,1.81325 1.0421,2.9283 2.87619,2.9283c0.594,0 1.07336,-0.06253 1.53188,-0.198l0.594,-0.20842l0.53147,-0.18758c0.07295,-0.02084 0.11463,-0.06253 0.12505,-0.13547z" data-paper-data="{&quot;glyphName&quot;:&quot;G&quot;,&quot;glyphIndex&quot;:14,&quot;word&quot;:2}" style="fill: rgb(255, 255, 255);"/>
        <path d="M257.84921,295.99114l0.2501,-1.37557h3.10545c0.08337,0 0.12505,-0.03126 0.15631,-0.10421l0.55231,-1.21925c0.04168,-0.09379 0,-0.15631 -0.10421,-0.15631h-5.02291c-0.08337,0 -0.13547,0.04168 -0.14589,0.12505l-1.25052,7.11753c-0.01042,0.09379 0.03126,0.14589 0.12505,0.14589h4.97081c0.08337,0 0.13547,-0.04168 0.14589,-0.12505l0.20842,-1.19841c0.01042,-0.09379 -0.03126,-0.14589 -0.12505,-0.14589h-3.40766l0.29179,-1.59441h2.56356c0.08337,0 0.13547,-0.04168 0.14589,-0.12505l0.21884,-1.19841c0.01042,-0.09379 -0.03126,-0.14589 -0.12505,-0.14589z" data-paper-data="{&quot;glyphName&quot;:&quot;E&quot;,&quot;glyphIndex&quot;:15,&quot;word&quot;:2}" style="fill: rgb(255, 255, 255);"/>
        <path d="M271.49375,293.28169c0.01042,-0.09379 -0.03126,-0.14589 -0.12505,-0.14589h-1.41725c-0.08337,0 -0.13547,0.04168 -0.14589,0.12505l-0.53147,2.94914c-0.13547,0.75031 -0.198,1.22968 -0.20842,1.87578c0,0.14589 -0.12505,0.20842 -0.17716,0.04168c-0.09379,-0.30221 -0.198,-0.61484 -0.30221,-0.92747l-0.96915,-2.85535c-0.13547,-0.42726 -0.2501,-0.78157 -0.33347,-1.0942c-0.02084,-0.07295 -0.07295,-0.11463 -0.14589,-0.11463h-1.77157c-0.08337,0 -0.13547,0.04168 -0.14589,0.12505l-1.25052,7.11753c-0.01042,0.09379 0.03126,0.14589 0.12505,0.14589h1.41725c0.08337,0 0.13547,-0.04168 0.14589,-0.12505l0.51063,-2.9283c0.13547,-0.75031 0.18758,-1.2401 0.20842,-1.89662c0.01042,-0.13547 0.14589,-0.198 0.198,-0.04168l0.28137,0.85452l0.97957,2.9283c0.12505,0.37516 0.22926,0.71905 0.33347,1.0942c0.02084,0.07295 0.07295,0.11463 0.14589,0.11463h1.77157c0.08337,0 0.13547,-0.04168 0.14589,-0.12505z" data-paper-data="{&quot;glyphName&quot;:&quot;N&quot;,&quot;glyphIndex&quot;:16,&quot;word&quot;:2}" style="fill: rgb(255, 255, 255);"/>
        <path d="M280.78231,293.28169c0.01042,-0.09379 -0.03126,-0.14589 -0.12505,-0.14589h-5.80449c-0.08337,0 -0.13547,0.04168 -0.14589,0.12505l-0.21884,1.20883c-0.01042,0.09379 0.03126,0.14589 0.12505,0.14589h2.06335l-1.02126,5.7628c-0.01042,0.09379 0.03126,0.14589 0.12505,0.14589h1.41725c0.08337,0 0.13547,-0.04168 0.14589,-0.12505l1.02126,-5.78364h2.05293c0.08337,0 0.13547,-0.04168 0.14589,-0.12505z" data-paper-data="{&quot;glyphName&quot;:&quot;T&quot;,&quot;glyphIndex&quot;:17,&quot;word&quot;:2}" style="fill: rgb(255, 255, 255);"/>
        <path d="M285.20428,295.99114l0.2501,-1.37557h3.10545c0.08337,0 0.12505,-0.03126 0.15631,-0.10421l0.55231,-1.21925c0.04168,-0.09379 0,-0.15631 -0.10421,-0.15631h-5.02291c-0.08337,0 -0.13547,0.04168 -0.14589,0.12505l-1.25052,7.11753c-0.01042,0.09379 0.03126,0.14589 0.12505,0.14589h4.97081c0.08337,0 0.13547,-0.04168 0.14589,-0.12505l0.20842,-1.19841c0.01042,-0.09379 -0.03126,-0.14589 -0.12505,-0.14589h-3.40766l0.29179,-1.59441h2.56356c0.08337,0 0.13547,-0.04168 0.14589,-0.12505l0.21884,-1.19841c0.01042,-0.09379 -0.03126,-0.14589 -0.12505,-0.14589z" data-paper-data="{&quot;glyphName&quot;:&quot;E&quot;,&quot;glyphIndex&quot;:18,&quot;word&quot;:2}" style="fill: rgb(255, 255, 255);"/>
        <path d="M294.50327,297.61681c0.56273,0.21884 0.76073,0.45852 0.76073,0.76073c0,0.58357 -0.58357,0.76073 -1.26094,0.76073c-0.51063,0 -0.96915,-0.08337 -1.50062,-0.26052l-0.61484,-0.20842c-0.07295,-0.03126 -0.13547,0 -0.17716,0.07295l-0.57315,1.10462c-0.04168,0.08337 -0.01042,0.15631 0.07295,0.18758l0.66694,0.21884c0.76073,0.26052 1.38599,0.38558 1.97999,0.38558c2.44893,0 3.10545,-1.35473 3.10545,-2.55314c0,-0.88578 -0.54189,-1.35473 -1.69862,-1.81325l-0.82326,-0.32305c-0.53147,-0.20842 -0.72947,-0.38558 -0.72947,-0.63568c0,-0.50021 0.4481,-0.78157 1.20883,-0.78157c0.38558,0 0.75031,0.06253 1.15673,0.198l0.58357,0.198c0.07295,0.03126 0.13547,0 0.17716,-0.07295l0.594,-1.11504c0.0521,-0.07295 0.02084,-0.14589 -0.06253,-0.17716l-0.6461,-0.21884c-0.61484,-0.21884 -1.13589,-0.32305 -1.67778,-0.32305c-2.30304,0 -3.0325,1.34431 -3.0325,2.52188c0,0.86494 0.47937,1.27136 1.60483,1.71946z" data-paper-data="{&quot;glyphName&quot;:&quot;S&quot;,&quot;glyphIndex&quot;:19,&quot;lastGlyphOfWord&quot;:true,&quot;word&quot;:2}" style="fill: rgb(255, 255, 255);"/>
        <path d="M305.53561,293.13579c-0.08337,0 -0.13547,0.04168 -0.14589,0.12505l-1.25052,7.11753c-0.01042,0.09379 0.03126,0.14589 0.12505,0.14589h1.41725c0.08337,0 0.13547,-0.04168 0.14589,-0.12505l0.38558,-2.23009h0.93789c2.15714,0 3.43892,-1.05252 3.43892,-2.84493c0.01042,-1.37557 -0.8441,-2.18841 -2.28219,-2.18841zM306.84866,294.61557h1.28178c0.47937,0 0.76073,0.30221 0.76073,0.83368c0,0.79199 -0.58357,1.25052 -1.56315,1.25052h-0.85452z" data-paper-data="{&quot;glyphName&quot;:&quot;P&quot;,&quot;glyphIndex&quot;:20,&quot;firstGlyphOfWord&quot;:true,&quot;word&quot;:3}" style="fill: rgb(255, 255, 255);"/>
        <path d="M317.25227,299.54469l0.16674,0.85452c0.01042,0.08337 0.06253,0.12505 0.14589,0.12505h1.40683c0.09379,0 0.13547,-0.0521 0.11463,-0.14589l-0.76073,-3.99123c-0.198,-1.06294 -0.36473,-2.07377 -0.43768,-3.11587c-0.01042,-0.09379 -0.0521,-0.13547 -0.14589,-0.13547h-1.9383c-0.08337,0 -0.12505,0.03126 -0.15631,0.10421c-0.45852,1.05252 -0.97957,2.07377 -1.56315,3.14714l-2.15714,3.98081c-0.04168,0.09379 -0.01042,0.15631 0.10421,0.15631h1.53188c0.07295,0 0.12505,-0.03126 0.15631,-0.09379l0.46894,-0.88578zM316.98132,298.07534h-2.00083l0.21884,-0.41684c0.4481,-0.83368 0.93789,-1.80283 1.19841,-2.48019c0.0521,-0.12505 0.18758,-0.12505 0.198,0c0,0.67736 0.16674,1.65694 0.30221,2.48019z" data-paper-data="{&quot;glyphName&quot;:&quot;A&quot;,&quot;glyphIndex&quot;:21,&quot;word&quot;:3}" style="fill: rgb(255, 255, 255);"/>
        <path d="M323.65422,293.13579c-0.08337,0 -0.13547,0.04168 -0.14589,0.12505l-1.25052,7.11753c-0.01042,0.09379 0.03126,0.14589 0.12505,0.14589h1.41725c0.08337,0 0.13547,-0.04168 0.14589,-0.12505l0.43768,-2.49061h0.28137c1.15673,0 1.50062,0.48979 1.71946,1.39641l0.26052,1.10462c0.02084,0.07295 0.07295,0.11463 0.15631,0.11463h1.40683c0.09379,0 0.14589,-0.0521 0.12505,-0.14589l-0.42726,-1.77157c-0.11463,-0.40642 -0.30221,-0.86494 -0.70863,-1.14631c-0.11463,-0.07295 -0.10421,-0.13547 0.0521,-0.198c0.80242,-0.32305 1.5423,-0.91705 1.5423,-2.09462c0,-1.17757 -0.75031,-2.03209 -2.20925,-2.03209zM324.64421,296.43924l0.32305,-1.82367h1.33389c0.47937,0 0.79199,0.28137 0.79199,0.77115c0,0.63568 -0.62526,1.05252 -1.45894,1.05252z" data-paper-data="{&quot;glyphName&quot;:&quot;R&quot;,&quot;glyphIndex&quot;:22,&quot;word&quot;:3}" style="fill: rgb(255, 255, 255);"/>
        <path d="M336.51718,299.54469l0.16674,0.85452c0.01042,0.08337 0.06253,0.12505 0.14589,0.12505h1.40683c0.09379,0 0.13547,-0.0521 0.11463,-0.14589l-0.76073,-3.99123c-0.198,-1.06294 -0.36473,-2.07377 -0.43768,-3.11587c-0.01042,-0.09379 -0.0521,-0.13547 -0.14589,-0.13547h-1.9383c-0.08337,0 -0.12505,0.03126 -0.15631,0.10421c-0.45852,1.05252 -0.97957,2.07377 -1.56315,3.14714l-2.15714,3.98081c-0.04168,0.09379 -0.01042,0.15631 0.10421,0.15631h1.53188c0.07295,0 0.12505,-0.03126 0.15631,-0.09379l0.46894,-0.88578zM336.24624,298.07534h-2.00083l0.21884,-0.41684c0.4481,-0.83368 0.93789,-1.80283 1.19841,-2.48019c0.0521,-0.12505 0.18758,-0.12505 0.198,0c0,0.67736 0.16674,1.65694 0.30221,2.48019z" data-paper-data="{&quot;glyphName&quot;:&quot;A&quot;,&quot;glyphIndex&quot;:23,&quot;lastGlyphOfWord&quot;:true,&quot;word&quot;:3}" style="fill: rgb(255, 255, 255);"/>
        <path d="M350.73835,299.54469l0.16674,0.85452c0.01042,0.08337 0.06253,0.12505 0.14589,0.12505h1.40683c0.09379,0 0.13547,-0.0521 0.11463,-0.14589l-0.76073,-3.99123c-0.198,-1.06294 -0.36473,-2.07377 -0.43768,-3.11587c-0.01042,-0.09379 -0.0521,-0.13547 -0.14589,-0.13547h-1.9383c-0.08337,0 -0.12505,0.03126 -0.15631,0.10421c-0.45852,1.05252 -0.97957,2.07377 -1.56315,3.14714l-2.15714,3.98081c-0.04168,0.09379 -0.01042,0.15631 0.10421,0.15631h1.53188c0.07295,0 0.12505,-0.03126 0.15631,-0.09379l0.46894,-0.88578zM350.4674,298.07534h-2.00083l0.21884,-0.41684c0.4481,-0.83368 0.93789,-1.80283 1.19841,-2.48019c0.0521,-0.12505 0.18758,-0.12505 0.198,0c0,0.67736 0.16674,1.65694 0.30221,2.48019z" data-paper-data="{&quot;glyphName&quot;:&quot;A&quot;,&quot;glyphIndex&quot;:24,&quot;firstGlyphOfWord&quot;:true,&quot;word&quot;:4}" style="fill: rgb(255, 255, 255);"/>
        <path d="M362.04858,296.49135c0.01042,-0.09379 -0.03126,-0.14589 -0.12505,-0.14589h-2.21967c-0.08337,0 -0.12505,0.03126 -0.15631,0.10421l-0.56273,1.21925c-0.04168,0.09379 0,0.15631 0.10421,0.15631h1.11504l-0.198,1.10462l-0.16674,0.0521c-0.32305,0.10421 -0.68778,0.15631 -1.12547,0.15631c-0.79199,0 -1.22968,-0.54189 -1.22968,-1.50062c0,-1.16715 0.60442,-3.10545 2.25093,-3.10545c0.36473,0 0.66694,0.02084 0.98999,0.13547l0.40642,0.14589c0.08337,0.03126 0.14589,0 0.17716,-0.07295l0.57315,-1.12547c0.04168,-0.07295 0.01042,-0.14589 -0.07295,-0.17716l-0.46894,-0.15631c-0.52105,-0.17716 -0.92747,-0.26052 -1.5423,-0.26052c-2.94914,0 -4.01208,2.80324 -4.01208,4.68944c0,1.81325 1.0421,2.9283 2.87619,2.9283c0.594,0 1.07336,-0.06253 1.53188,-0.198l0.594,-0.20842l0.53147,-0.18758c0.07295,-0.02084 0.11463,-0.06253 0.12505,-0.13547z" data-paper-data="{&quot;glyphName&quot;:&quot;G&quot;,&quot;glyphIndex&quot;:25,&quot;word&quot;:4}" style="fill: rgb(255, 255, 255);"/>
        <path d="M366.18918,293.13579c-0.08337,0 -0.13547,0.04168 -0.14589,0.12505l-1.25052,7.11753c-0.01042,0.09379 0.03126,0.14589 0.12505,0.14589h1.41725c0.08337,0 0.13547,-0.04168 0.14589,-0.12505l0.43768,-2.49061h0.28137c1.15673,0 1.50062,0.48979 1.71946,1.39641l0.26052,1.10462c0.02084,0.07295 0.07295,0.11463 0.15631,0.11463h1.40683c0.09379,0 0.14589,-0.0521 0.12505,-0.14589l-0.42726,-1.77157c-0.11463,-0.40642 -0.30221,-0.86494 -0.70863,-1.14631c-0.11463,-0.07295 -0.10421,-0.13547 0.0521,-0.198c0.80242,-0.32305 1.5423,-0.91705 1.5423,-2.09462c0,-1.17757 -0.75031,-2.03209 -2.20925,-2.03209zM367.17918,296.43924l0.32305,-1.82367h1.33389c0.47937,0 0.79199,0.28137 0.79199,0.77115c0,0.63568 -0.62526,1.05252 -1.45894,1.05252z" data-paper-data="{&quot;glyphName&quot;:&quot;R&quot;,&quot;glyphIndex&quot;:26,&quot;word&quot;:4}" style="fill: rgb(255, 255, 255);"/>
        <path d="M377.03048,293.28169c0.01042,-0.09379 -0.03126,-0.14589 -0.12505,-0.14589h-1.41725c-0.08337,0 -0.13547,0.04168 -0.14589,0.12505l-1.25052,7.11753c-0.01042,0.09379 0.03126,0.14589 0.12505,0.14589h1.41725c0.08337,0 0.13547,-0.04168 0.14589,-0.12505z" data-paper-data="{&quot;glyphName&quot;:&quot;I&quot;,&quot;glyphIndex&quot;:27,&quot;word&quot;:4}" style="fill: rgb(255, 255, 255);"/>
        <path d="M384.61,300.27416c0.08337,-0.02084 0.11463,-0.07295 0.10421,-0.15631l-0.22926,-1.21925c-0.02084,-0.08337 -0.08337,-0.12505 -0.16674,-0.09379l-0.51063,0.14589c-0.4481,0.12505 -0.80242,0.18758 -1.14631,0.18758c-0.85452,0 -1.30262,-0.48979 -1.30262,-1.5423c0,-1.14631 0.62526,-3.06377 2.25093,-3.06377c0.41684,0 0.67736,0.03126 0.93789,0.12505l0.46894,0.15631c0.07295,0.03126 0.13547,0 0.16674,-0.07295l0.57315,-1.11504c0.04168,-0.08337 0.01042,-0.15631 -0.07295,-0.18758l-0.41684,-0.13547c-0.53147,-0.17716 -1.00041,-0.28137 -1.5423,-0.28137c-2.9804,0 -4.06418,2.75114 -4.06418,4.6686c0,1.82367 1.0421,2.94914 2.83451,2.94914c0.60442,0 1.08378,-0.06253 1.55273,-0.198z" data-paper-data="{&quot;glyphName&quot;:&quot;C&quot;,&quot;glyphIndex&quot;:28,&quot;word&quot;:4}" style="fill: rgb(255, 255, 255);"/>
        <path d="M395.13866,293.28169c0.02084,-0.09379 -0.02084,-0.14589 -0.11463,-0.14589h-1.40683c-0.08337,0 -0.13547,0.04168 -0.14589,0.12505l-0.73989,4.16839c-0.18758,1.06294 -0.81284,1.70904 -1.66736,1.70904c-0.75031,0 -1.08378,-0.54189 -0.8962,-1.61525l0.75031,-4.24134c0.01042,-0.09379 -0.03126,-0.14589 -0.12505,-0.14589h-1.40683c-0.08337,0 -0.13547,0.04168 -0.14589,0.12505l-0.73989,4.16839c-0.35431,2.01125 0.54189,3.20966 2.44893,3.20966c1.81325,0 3.08461,-1.0942 3.43892,-3.11587z" data-paper-data="{&quot;glyphName&quot;:&quot;U&quot;,&quot;glyphIndex&quot;:29,&quot;word&quot;:4}" style="fill: rgb(255, 255, 255);"/>
        <path d="M399.26885,299.02365l1.01083,-5.74196c0.01042,-0.09379 -0.03126,-0.14589 -0.12505,-0.14589h-1.41725c-0.08337,0 -0.13547,0.04168 -0.14589,0.12505l-1.25052,7.11753c-0.01042,0.09379 0.03126,0.14589 0.12505,0.14589h4.58523c0.08337,0 0.13547,-0.04168 0.14589,-0.12505l0.20842,-1.22968c0.01042,-0.09379 -0.03126,-0.14589 -0.12505,-0.14589z" data-paper-data="{&quot;glyphName&quot;:&quot;L&quot;,&quot;glyphIndex&quot;:30,&quot;word&quot;:4}" style="fill: rgb(255, 255, 255);"/>
        <path d="M411.6316,293.28169c0.01042,-0.09379 -0.03126,-0.14589 -0.12505,-0.14589h-5.80449c-0.08337,0 -0.13547,0.04168 -0.14589,0.12505l-0.21884,1.20883c-0.01042,0.09379 0.03126,0.14589 0.12505,0.14589h2.06335l-1.02126,5.7628c-0.01042,0.09379 0.03126,0.14589 0.12505,0.14589h1.41725c0.08337,0 0.13547,-0.04168 0.14589,-0.12505l1.02126,-5.78364h2.05293c0.08337,0 0.13547,-0.04168 0.14589,-0.12505z" data-paper-data="{&quot;glyphName&quot;:&quot;T&quot;,&quot;glyphIndex&quot;:31,&quot;word&quot;:4}" style="fill: rgb(255, 255, 255);"/>
        <path d="M420.6388,293.28169c0.02084,-0.09379 -0.02084,-0.14589 -0.11463,-0.14589h-1.40683c-0.08337,0 -0.13547,0.04168 -0.14589,0.12505l-0.73989,4.16839c-0.18758,1.06294 -0.81284,1.70904 -1.66736,1.70904c-0.75031,0 -1.08378,-0.54189 -0.8962,-1.61525l0.75031,-4.24134c0.01042,-0.09379 -0.03126,-0.14589 -0.12505,-0.14589h-1.40683c-0.08337,0 -0.13547,0.04168 -0.14589,0.12505l-0.73989,4.16839c-0.35431,2.01125 0.54189,3.20966 2.44893,3.20966c1.81325,0 3.08461,-1.0942 3.43892,-3.11587z" data-paper-data="{&quot;glyphName&quot;:&quot;U&quot;,&quot;glyphIndex&quot;:32,&quot;word&quot;:4}" style="fill: rgb(255, 255, 255);"/>
        <path d="M424.23751,293.13579c-0.08337,0 -0.13547,0.04168 -0.14589,0.12505l-1.25052,7.11753c-0.01042,0.09379 0.03126,0.14589 0.12505,0.14589h1.41725c0.08337,0 0.13547,-0.04168 0.14589,-0.12505l0.43768,-2.49061h0.28137c1.15673,0 1.50062,0.48979 1.71946,1.39641l0.26052,1.10462c0.02084,0.07295 0.07295,0.11463 0.15631,0.11463h1.40683c0.09379,0 0.14589,-0.0521 0.12505,-0.14589l-0.42726,-1.77157c-0.11463,-0.40642 -0.30221,-0.86494 -0.70863,-1.14631c-0.11463,-0.07295 -0.10421,-0.13547 0.0521,-0.198c0.80242,-0.32305 1.5423,-0.91705 1.5423,-2.09462c0,-1.17757 -0.75031,-2.03209 -2.20925,-2.03209zM425.2275,296.43924l0.32305,-1.82367h1.33389c0.47937,0 0.79199,0.28137 0.79199,0.77115c0,0.63568 -0.62526,1.05252 -1.45894,1.05252z" data-paper-data="{&quot;glyphName&quot;:&quot;R&quot;,&quot;glyphIndex&quot;:33,&quot;word&quot;:4}" style="fill: rgb(255, 255, 255);"/>
        <path d="M437.10047,299.54469l0.16674,0.85452c0.01042,0.08337 0.06253,0.12505 0.14589,0.12505h1.40683c0.09379,0 0.13547,-0.0521 0.11463,-0.14589l-0.76073,-3.99123c-0.198,-1.06294 -0.36473,-2.07377 -0.43768,-3.11587c-0.01042,-0.09379 -0.0521,-0.13547 -0.14589,-0.13547h-1.9383c-0.08337,0 -0.12505,0.03126 -0.15631,0.10421c-0.45852,1.05252 -0.97957,2.07377 -1.56315,3.14714l-2.15714,3.98081c-0.04168,0.09379 -0.01042,0.15631 0.10421,0.15631h1.53188c0.07295,0 0.12505,-0.03126 0.15631,-0.09379l0.46894,-0.88578zM436.82953,298.07534h-2.00083l0.21884,-0.41684c0.4481,-0.83368 0.93789,-1.80283 1.19841,-2.48019c0.0521,-0.12505 0.18758,-0.12505 0.198,0c0,0.67736 0.16674,1.65694 0.30221,2.48019z" data-paper-data="{&quot;glyphName&quot;:&quot;A&quot;,&quot;glyphIndex&quot;:34,&quot;lastGlyphOfWord&quot;:true,&quot;word&quot;:4}" style="fill: rgb(255, 255, 255);"/>
      </g>
      <g data-paper-data="{&quot;isPrimaryText&quot;:true}" fill="#585c3b">
        <path d="M223.84359,167.07891h-19.74458l-15.85549,62.97324l-16.60339,-44.57488c-1.4958,-3.7395 -4.93614,-6.13279 -8.97481,-6.13279c-4.03866,0 -7.62859,2.39328 -8.97481,6.13279l-16.75297,44.57488l-15.70591,-62.97324h-19.74458l24.38156,97.52625c1.04706,4.03866 4.4874,6.88069 8.67565,7.17985c4.18824,0.14958 8.07733,-2.2437 9.57313,-6.28237l18.54794,-49.36144l18.54794,49.36144c1.34622,3.88908 4.93614,6.28237 8.97481,6.28237h0.44874c4.18824,-0.29916 7.77817,-3.14118 8.82523,-7.17985z" data-paper-data="{&quot;glyphName&quot;:&quot;W&quot;,&quot;glyphIndex&quot;:0,&quot;firstGlyphOfWord&quot;:true,&quot;word&quot;:1}" style="fill: rgb(255, 255, 255);"/>
        <path d="M235.81001,167.07891v104.70609h19.14626v-36.64713h18.69752l3.58992,2.69244l9.72271,33.95469h19.89416l-11.36809,-40.08748l8.67565,-8.52607c1.79496,-1.79496 2.69244,-4.18824 2.69244,-6.73111v-30.66393c0,-2.54286 -0.89748,-4.93614 -2.69244,-6.73111l-9.27397,-9.12439c-1.79496,-1.79496 -4.18824,-2.84202 -6.73111,-2.84202zM254.95626,186.22517h29.31771l3.44034,3.58992v22.5866l-3.44034,3.58992h-29.31771z" data-paper-data="{&quot;glyphName&quot;:&quot;R&quot;,&quot;glyphIndex&quot;:1,&quot;word&quot;:1}" style="fill: rgb(255, 255, 255);"/>
        <path d="M321.81858,167.07891v19.14626h8.67565l3.58992,3.58992v62.82366h-13.76137v19.14626h46.669v-19.14626h-13.76137v-66.86232c0,-2.54286 -1.04706,-4.93614 -2.84202,-6.73111l-9.12439,-9.12439c-1.79496,-1.79496 -4.18824,-2.84202 -6.73111,-2.84202z" data-paper-data="{&quot;glyphName&quot;:&quot;1&quot;,&quot;glyphIndex&quot;:2,&quot;word&quot;:1}" style="fill: rgb(255, 255, 255);"/>
        <path d="M401.24563,167.07891c-2.54286,0 -4.93614,1.04706 -6.73111,2.84202l-11.21851,11.21851c-1.79496,1.79496 -2.84202,4.18824 -2.84202,6.73111v63.12282c0,2.54286 1.04706,4.93614 2.84202,6.73111l11.21851,11.21851c1.79496,1.79496 4.18824,2.84202 6.73111,2.84202h26.47568c2.54286,0 4.93614,-1.04706 6.73111,-2.84202l11.21851,-11.21851c1.79496,-1.79496 2.84202,-4.18824 2.84202,-6.73111v-63.12282c0,-2.54286 -1.04706,-4.93614 -2.84202,-6.73111l-11.21851,-11.21851c-1.79496,-1.79496 -4.18824,-2.84202 -6.73111,-2.84202zM405.2843,186.22517h18.54794l5.53446,5.53446v55.19507l-5.53446,5.68405h-18.54794l-5.68405,-5.68405v-55.19507z" data-paper-data="{&quot;glyphName&quot;:&quot;0&quot;,&quot;glyphIndex&quot;:3,&quot;lastGlyphOfWord&quot;:true,&quot;word&quot;:1}" style="fill: rgb(255, 255, 255);"/>
      </g>
    </g>
  </g>
</svg>
